<svg width="40" height="40" viewBox="0 0 40 40" fill="none" xmlns="http://www.w3.org/2000/svg">
  <!-- Background with subtle opacity -->
  <path opacity="0.15" fill-rule="evenodd" clip-rule="evenodd" d="M3 1C1.89543 1 1 1.89543 1 3V37C1 38.1046 1.89543 39 3 39H37C38.1046 39 39 38.1046 39 37V3C39 1.89543 38.1046 1 37 1H3ZM36 10H4V36H36V10Z" fill="url(#paint0_linear)"/>
  
  <!-- Outer border -->
  <path d="M37.6172 0.375H2.38281C1.06903 0.375 0 1.44403 0 2.75781V37.2422C0 38.556 1.06903 39.625 2.38281 39.625H37.6172C38.931 39.625 40 38.556 40 37.2422V2.75781C40 1.44403 38.931 0.375 37.6172 0.375ZM38.4375 37.2422C38.4375 37.6945 38.0695 38.0625 37.6172 38.0625H2.38281C1.93054 38.0625 1.5625 37.6945 1.5625 37.2422V2.75781C1.5625 2.30554 1.93054 1.9375 2.38281 1.9375H37.6172C38.0695 1.9375 38.4375 2.30554 38.4375 2.75781V37.2422Z" fill="url(#paint1_linear)"/>
  
  <!-- Pen body -->
  <path d="M14 10C14 8.89543 14.8954 8 16 8H24C25.1046 8 26 8.89543 26 10V18L20 24L14 18V10Z" fill="url(#paint2_linear)"/>
  
  <!-- Pen tip -->
  <path d="M20 24L16 20H24L20 24Z" fill="url(#paint3_linear)"/>
  
  <!-- Logo shape (checkmark) being drawn -->
  <path d="M16 22L20 26L28 18" fill="none" stroke="url(#paint4_linear)" stroke-width="2" stroke-linecap="round" stroke-linejoin="round"/>
  
  <!-- Definitions for gradients -->
  <defs>
    <linearGradient id="paint0_linear" x1="3.15333" y1="1" x2="26.6886" y2="35.0542" gradientUnits="userSpaceOnUse">
      <stop offset="0.259336" stop-color="#FFDB6E"/>
      <stop offset="1" stop-color="#FFBC5E"/>
    </linearGradient>
    <linearGradient id="paint1_linear" x1="2.26667" y1="0.375001" x2="27.8327" y2="36.511" gradientUnits="userSpaceOnUse">
      <stop offset="0.259336" stop-color="#FFDB6E"/>
      <stop offset="1" stop-color="#FFBC5E"/>
    </linearGradient>
    <linearGradient id="paint2_linear" x1="14" y1="8" x2="26" y2="18" gradientUnits="userSpaceOnUse">
      <stop offset="0.259336" stop-color="#FFDB6E"/>
      <stop offset="1" stop-color="#FFBC5E"/>
    </linearGradient>
    <linearGradient id="paint3_linear" x1="16" y1="20" x2="24" y2="24" gradientUnits="userSpaceOnUse">
      <stop offset="0.259336" stop-color="#FFDB6E"/>
      <stop offset="1" stop-color="#FFBC5E"/>
    </linearGradient>
    <linearGradient id="paint4_linear" x1="16" y1="18" x2="28" y2="26" gradientUnits="userSpaceOnUse">
      <stop offset="0.259336" stop-color="#FFDB6E"/>
      <stop offset="1" stop-color="#FFBC5E"/>
    </linearGradient>
  </defs>
</svg>